<?xml version="1.0" standalone="no"?>
<!DOCTYPE svg PUBLIC "-//W3C//DTD SVG 20010904//EN"
 "http://www.w3.org/TR/2001/REC-SVG-20010904/DTD/svg10.dtd">
<svg version="1.0" xmlns="http://www.w3.org/2000/svg"
 width="700.000000pt" height="700.000000pt" viewBox="0 0 700.000000 700.000000"
 preserveAspectRatio="xMidYMid meet">
<metadata>
Created by potrace 1.11, written by Peter Selinger 2001-2013
</metadata>
<g transform="translate(0.000000,700.000000) scale(0.100000,-0.100000)"
fill="#000000" stroke="none">
<path d="M3308 6995 c-2 -1 -32 -5 -68 -9 -128 -11 -196 -22 -345 -51 -63 -12
-224 -58 -315 -90 -432 -149 -808 -417 -1067 -760 -127 -169 -232 -366 -311
-585 -29 -80 -57 -174 -68 -230 -3 -14 -7 -33 -10 -42 -3 -10 -7 -28 -10 -40
-2 -13 -6 -34 -9 -48 -36 -173 -50 -334 -50 -570 1 -238 25 -371 122 -675 161
-503 523 -1226 996 -1989 143 -231 440 -693 464 -721 5 -5 28 -39 52 -75 133
-197 435 -623 511 -721 19 -25 44 -58 55 -73 11 -16 25 -33 30 -40 6 -6 22
-27 35 -46 13 -19 27 -37 30 -40 3 -3 17 -21 31 -40 15 -19 36 -46 48 -60 30
-37 35 -43 52 -68 l16 -22 40 52 c22 29 112 152 199 273 748 1036 1146 1649
1586 2440 146 263 341 681 436 935 78 208 148 451 167 583 3 18 9 59 14 92 9
59 7 436 -3 485 -2 14 -7 50 -10 80 -8 82 -32 214 -61 335 -21 86 -21 87 -28
105 -3 8 -15 47 -28 85 -71 226 -198 461 -355 661 -252 320 -604 565 -1031
718 -80 29 -273 84 -322 92 -18 3 -43 8 -55 10 -42 9 -132 24 -176 29 -25 3
-61 8 -80 11 -39 5 -476 14 -482 9z m572 -1089 c16 -25 30 -48 30 -52 0 -4 7
-16 17 -26 9 -10 21 -27 27 -38 6 -11 37 -61 69 -111 32 -50 55 -95 50 -99 -4
-4 -84 -67 -178 -139 -93 -73 -181 -141 -195 -152 -14 -11 -38 -30 -54 -42
-16 -12 -56 -43 -89 -69 -46 -35 -63 -43 -72 -35 -7 7 -67 55 -134 107 -201
156 -426 331 -430 336 -2 2 7 21 21 41 24 36 42 63 162 251 l46 72 349 0 350
0 31 -44z m-690 -827 c58 -45 106 -82 108 -84 1 -1 -26 -12 -60 -25 -348 -125
-565 -441 -553 -803 8 -210 94 -401 251 -553 147 -144 340 -225 538 -228 148
-2 246 18 371 74 234 106 429 366 462 615 9 65 9 175 0 245 -13 110 -80 270
-155 370 -85 114 -236 224 -379 276 -41 15 -70 30 -66 34 4 4 54 42 110 85
l102 77 63 -32 c230 -119 414 -326 500 -565 53 -144 68 -239 63 -390 -4 -138
-7 -160 -41 -274 -67 -221 -191 -400 -372 -535 -124 -94 -297 -174 -412 -192
-19 -3 -55 -10 -80 -14 -66 -13 -238 -9 -322 6 -217 40 -405 140 -563 299
-156 156 -252 343 -290 563 -15 83 -17 263 -4 321 4 20 10 53 13 73 8 50 42
149 79 228 92 197 270 382 463 479 32 17 61 30 64 31 4 0 53 -37 110 -81z"/>
</g>
</svg>
